<mxfile host="app.diagrams.net" agent="Mozilla/5.0 (Windows NT 10.0; Win64; x64) AppleWebKit/537.36 (KHTML, like Gecko) Chrome/122.0.0.0 Safari/537.36" version="24.7.16">
  <diagram name="Página-1" id="4ri8VMMf7sGSuOjAQnus">
    <mxGraphModel dx="1150" dy="466" grid="1" gridSize="10" guides="1" tooltips="1" connect="1" arrows="1" fold="1" page="1" pageScale="1" pageWidth="827" pageHeight="1169" math="0" shadow="0">
      <root>
        <mxCell id="0" />
        <mxCell id="1" parent="0" />
        <mxCell id="ZlDyz7bRuh7kBqwKIeCI-2" value="Rueda" style="rounded=0;whiteSpace=wrap;html=1;" parent="1" vertex="1">
          <mxGeometry x="350" y="340" width="120" height="60" as="geometry" />
        </mxCell>
        <mxCell id="ZlDyz7bRuh7kBqwKIeCI-3" value="Rueda" style="rounded=0;whiteSpace=wrap;html=1;" parent="1" vertex="1">
          <mxGeometry x="350" y="470" width="120" height="60" as="geometry" />
        </mxCell>
        <mxCell id="ZlDyz7bRuh7kBqwKIeCI-23" style="endArrow=none;edgeStyle=orthogonalEdgeStyle;rounded=0;orthogonalLoop=1;jettySize=auto;html=1;exitX=0;exitY=0.5;exitDx=0;exitDy=0;entryX=1;entryY=0.5;entryDx=0;entryDy=0;" parent="1" source="ZlDyz7bRuh7kBqwKIeCI-4" target="ZlDyz7bRuh7kBqwKIeCI-2" edge="1">
          <mxGeometry relative="1" as="geometry" />
        </mxCell>
        <mxCell id="ZlDyz7bRuh7kBqwKIeCI-4" value="Motor DC" style="rounded=0;whiteSpace=wrap;html=1;" parent="1" vertex="1">
          <mxGeometry x="510" y="340" width="120" height="60" as="geometry" />
        </mxCell>
        <mxCell id="ZlDyz7bRuh7kBqwKIeCI-5" value="Encoder" style="rounded=0;whiteSpace=wrap;html=1;" parent="1" vertex="1">
          <mxGeometry x="510" y="280" width="120" height="60" as="geometry" />
        </mxCell>
        <mxCell id="ZlDyz7bRuh7kBqwKIeCI-17" style="endArrow=none;edgeStyle=orthogonalEdgeStyle;rounded=0;orthogonalLoop=1;jettySize=auto;html=1;exitX=0;exitY=0.5;exitDx=0;exitDy=0;entryX=1;entryY=0.5;entryDx=0;entryDy=0;" parent="1" source="ZlDyz7bRuh7kBqwKIeCI-6" target="ZlDyz7bRuh7kBqwKIeCI-4" edge="1">
          <mxGeometry relative="1" as="geometry" />
        </mxCell>
        <mxCell id="ZlDyz7bRuh7kBqwKIeCI-6" value="L298N" style="rounded=0;whiteSpace=wrap;html=1;" parent="1" vertex="1">
          <mxGeometry x="690" y="340" width="120" height="60" as="geometry" />
        </mxCell>
        <mxCell id="ZlDyz7bRuh7kBqwKIeCI-24" style="endArrow=none;edgeStyle=orthogonalEdgeStyle;rounded=0;orthogonalLoop=1;jettySize=auto;html=1;exitX=0;exitY=0.5;exitDx=0;exitDy=0;" parent="1" source="ZlDyz7bRuh7kBqwKIeCI-7" target="ZlDyz7bRuh7kBqwKIeCI-3" edge="1">
          <mxGeometry relative="1" as="geometry" />
        </mxCell>
        <mxCell id="ZlDyz7bRuh7kBqwKIeCI-7" value="Motor DC" style="rounded=0;whiteSpace=wrap;html=1;" parent="1" vertex="1">
          <mxGeometry x="510" y="470" width="120" height="60" as="geometry" />
        </mxCell>
        <mxCell id="ZlDyz7bRuh7kBqwKIeCI-8" value="Encoder" style="rounded=0;whiteSpace=wrap;html=1;" parent="1" vertex="1">
          <mxGeometry x="510" y="530" width="120" height="60" as="geometry" />
        </mxCell>
        <mxCell id="ZlDyz7bRuh7kBqwKIeCI-11" value="Fuente de alimentación" style="rounded=0;whiteSpace=wrap;html=1;" parent="1" vertex="1">
          <mxGeometry x="350" y="210" width="120" height="60" as="geometry" />
        </mxCell>
        <mxCell id="ZlDyz7bRuh7kBqwKIeCI-22" style="endArrow=none;edgeStyle=orthogonalEdgeStyle;rounded=0;orthogonalLoop=1;jettySize=auto;html=1;exitX=0.25;exitY=1;exitDx=0;exitDy=0;entryX=1;entryY=0.5;entryDx=0;entryDy=0;" parent="1" source="ZlDyz7bRuh7kBqwKIeCI-13" target="ZlDyz7bRuh7kBqwKIeCI-8" edge="1">
          <mxGeometry relative="1" as="geometry">
            <Array as="points">
              <mxPoint x="920" y="450" />
              <mxPoint x="830" y="450" />
              <mxPoint x="830" y="560" />
            </Array>
          </mxGeometry>
        </mxCell>
        <mxCell id="ZlDyz7bRuh7kBqwKIeCI-25" style="endArrow=none;edgeStyle=orthogonalEdgeStyle;rounded=0;orthogonalLoop=1;jettySize=auto;html=1;exitX=0.5;exitY=1;exitDx=0;exitDy=0;entryX=0.5;entryY=0;entryDx=0;entryDy=0;" parent="1" source="ZlDyz7bRuh7kBqwKIeCI-13" target="ZlDyz7bRuh7kBqwKIeCI-14" edge="1">
          <mxGeometry relative="1" as="geometry" />
        </mxCell>
        <mxCell id="ZlDyz7bRuh7kBqwKIeCI-30" style="endArrow=none;edgeStyle=orthogonalEdgeStyle;rounded=0;orthogonalLoop=1;jettySize=auto;html=1;exitX=0;exitY=0.75;exitDx=0;exitDy=0;entryX=1;entryY=0.5;entryDx=0;entryDy=0;" parent="1" source="ZlDyz7bRuh7kBqwKIeCI-13" target="ZlDyz7bRuh7kBqwKIeCI-6" edge="1">
          <mxGeometry relative="1" as="geometry">
            <Array as="points">
              <mxPoint x="890" y="370" />
            </Array>
          </mxGeometry>
        </mxCell>
        <mxCell id="ZlDyz7bRuh7kBqwKIeCI-13" value="ESP32" style="rounded=0;whiteSpace=wrap;html=1;" parent="1" vertex="1">
          <mxGeometry x="890" y="330" width="120" height="60" as="geometry" />
        </mxCell>
        <mxCell id="ZlDyz7bRuh7kBqwKIeCI-14" value="MPU6050" style="rounded=0;whiteSpace=wrap;html=1;" parent="1" vertex="1">
          <mxGeometry x="890" y="480" width="120" height="60" as="geometry" />
        </mxCell>
        <mxCell id="ZlDyz7bRuh7kBqwKIeCI-27" value="" style="endArrow=none;dashed=1;html=1;dashPattern=1 3;strokeWidth=2;rounded=0;exitX=1;exitY=0.5;exitDx=0;exitDy=0;" parent="1" source="ZlDyz7bRuh7kBqwKIeCI-11" edge="1">
          <mxGeometry width="50" height="50" relative="1" as="geometry">
            <mxPoint x="340" y="250" as="sourcePoint" />
            <mxPoint x="950" y="240" as="targetPoint" />
          </mxGeometry>
        </mxCell>
        <mxCell id="ZlDyz7bRuh7kBqwKIeCI-28" value="" style="endArrow=none;dashed=1;html=1;dashPattern=1 3;strokeWidth=2;rounded=0;exitX=0.5;exitY=0;exitDx=0;exitDy=0;" parent="1" source="ZlDyz7bRuh7kBqwKIeCI-6" edge="1">
          <mxGeometry width="50" height="50" relative="1" as="geometry">
            <mxPoint x="730" y="320" as="sourcePoint" />
            <mxPoint x="750" y="240" as="targetPoint" />
          </mxGeometry>
        </mxCell>
        <mxCell id="ZlDyz7bRuh7kBqwKIeCI-29" value="" style="endArrow=none;dashed=1;html=1;dashPattern=1 3;strokeWidth=2;rounded=0;exitX=0.5;exitY=0;exitDx=0;exitDy=0;" parent="1" source="ZlDyz7bRuh7kBqwKIeCI-13" edge="1">
          <mxGeometry width="50" height="50" relative="1" as="geometry">
            <mxPoint x="1010" y="270" as="sourcePoint" />
            <mxPoint x="950" y="240" as="targetPoint" />
          </mxGeometry>
        </mxCell>
        <mxCell id="UbIRr3k8atQfo-Iwjm3z-1" value="" style="endArrow=none;html=1;rounded=0;entryX=0.5;entryY=1;entryDx=0;entryDy=0;exitX=1;exitY=0.5;exitDx=0;exitDy=0;" edge="1" parent="1" source="ZlDyz7bRuh7kBqwKIeCI-7" target="ZlDyz7bRuh7kBqwKIeCI-6">
          <mxGeometry width="50" height="50" relative="1" as="geometry">
            <mxPoint x="770" y="420" as="sourcePoint" />
            <mxPoint x="820" y="370" as="targetPoint" />
            <Array as="points">
              <mxPoint x="750" y="500" />
            </Array>
          </mxGeometry>
        </mxCell>
        <mxCell id="UbIRr3k8atQfo-Iwjm3z-2" value="" style="endArrow=none;html=1;rounded=0;entryX=0.25;entryY=0;entryDx=0;entryDy=0;exitX=1;exitY=0.5;exitDx=0;exitDy=0;" edge="1" parent="1" source="ZlDyz7bRuh7kBqwKIeCI-5" target="ZlDyz7bRuh7kBqwKIeCI-13">
          <mxGeometry width="50" height="50" relative="1" as="geometry">
            <mxPoint x="800" y="320" as="sourcePoint" />
            <mxPoint x="870" y="310" as="targetPoint" />
            <Array as="points">
              <mxPoint x="920" y="310" />
            </Array>
          </mxGeometry>
        </mxCell>
      </root>
    </mxGraphModel>
  </diagram>
</mxfile>
